<?xml version="1.0" encoding="iso-8859-1"?>
<!-- Generator: Adobe Illustrator 19.0.0, SVG Export Plug-In . SVG Version: 6.00 Build 0)  -->
<svg version="1.1" id="Layer_1" xmlns="http://www.w3.org/2000/svg" xmlns:xlink="http://www.w3.org/1999/xlink" x="0px" y="0px"
	 viewBox="0 0 291.488 291.488" style="enable-background:new 0 0 291.488 291.488;" xml:space="preserve">
<g>
	<g>
		<g>
			<path d="M145.745,0L92.654,33.628C85.102,28.58,80.12,19.983,80.12,10.237h-9.375c0,15.511-12.614,28.125-28.125,28.125v9.375
				c6.553,0,12.572,2.269,17.358,6.038L0.432,92.053v57.952l28.125-17.813v37.42c0,12.923-10.514,23.438-23.438,23.438v9.375
				c12.923,0,23.438,10.514,23.438,23.438v65.625h37.5h75h121.875V132.192l28.125,17.813V92.03L145.745,0z M75.432,28.378
				c3.417,6.155,8.517,11.255,14.672,14.672c-6.155,3.417-11.255,8.513-14.672,14.672c-1.88-3.389-4.308-6.412-7.106-9.056
				l-0.117-0.183l-0.052,0.033c-2.24-2.096-4.697-3.966-7.397-5.466C66.915,39.633,72.014,34.537,75.432,28.378z M22.008,197.738
				c4.594-2.77,8.466-6.642,11.236-11.236c2.77,4.594,6.642,8.47,11.236,11.236c-4.594,2.77-8.466,6.642-11.236,11.236
				C30.474,204.38,26.602,200.508,22.008,197.738z M131.682,282.113h-56.25v-0.001V160.238h56.25V282.113z M253.557,282.112h-112.5
				v-131.25h-75v131.25H37.932v-56.25c0-12.923,10.514-23.438,23.438-23.438v-9.375c-12.923,0-23.438-10.514-23.438-23.438v-43.355
				l107.812-68.283l30.22,19.139c-7.669,7.884-18.375,12.811-30.22,12.811V99.3c23.259,0,42.188,18.923,42.188,42.188h9.375
				c0-15.919,8.869-29.798,21.919-36.98l34.331,21.745V282.112z M192.62,69.211c5.152,11.203,14.203,20.25,25.397,25.402
				c-11.198,5.152-20.245,14.198-25.397,25.402c-5.152-11.203-14.203-20.25-25.397-25.402
				C178.417,89.461,187.467,80.414,192.62,69.211z M281.682,132.97L281.682,132.97l-51.479-32.606
				c2.995-0.675,6.094-1.064,9.291-1.064v-9.375c-23.259,0-42.188-18.923-42.188-42.188h-9.375c0,8.034-2.297,15.525-6.211,21.923
				l-35.977-22.786L9.807,132.97V97.172l56.541-36.347c2.77,4.355,4.397,9.506,4.397,15.037h9.375
				c0-15.511,12.614-28.125,28.125-28.125v-9.375c-1.655,0-3.267-0.173-4.842-0.445L145.745,11.1l135.938,86.095V132.97z"/>
			<path d="M159.807,207.113h70.313v-56.25h-70.313V207.113z M169.182,160.238h51.563v37.5h-51.563V160.238z"/>
			<rect x="112.932" y="221.175" width="9.375" height="9.375"/>
			<rect x="201.995" y="169.613" width="9.375" height="9.375"/>
			<rect x="234.807" y="263.362" width="9.375" height="9.375"/>
			<rect x="216.057" y="263.362" width="9.375" height="9.375"/>
			<rect x="197.307" y="263.362" width="9.375" height="9.375"/>
		</g>
	</g>
</g>
<g>
</g>
<g>
</g>
<g>
</g>
<g>
</g>
<g>
</g>
<g>
</g>
<g>
</g>
<g>
</g>
<g>
</g>
<g>
</g>
<g>
</g>
<g>
</g>
<g>
</g>
<g>
</g>
<g>
</g>
</svg>
